#define d0a1de0455c84246cfad3b8f54d890d19Eylidkc9ag1ztiA_width 20
#define d0a1de0455c84246cfad3b8f54d890d19Eylidkc9ag1ztiA_height 20
static char d0a1de0455c84246cfad3b8f54d890d19Eylidkc9ag1ztiA_bits[] = {
  0x00, 0x0C, 0x00, 0x80, 0x33, 0x00, 0xB0, 0xE7, 0x00, 0xC8, 0xE1, 0x01, 
  0x44, 0x88, 0x02, 0x40, 0x80, 0x02, 0x84, 0xC2, 0x02, 0x0C, 0x6E, 0x03, 
  0x1E, 0xC8, 0x03, 0xFC, 0xDF, 0x03, 0x7C, 0xD8, 0x03, 0x9C, 0xDF, 0x03, 
  0xEC, 0xCF, 0x03, 0x7C, 0xF0, 0x03, 0x1C, 0x9F, 0x03, 0xFE, 0xFB, 0x03, 
  0x3C, 0xCA, 0x03, 0xE8, 0xBF, 0x01, 0x70, 0x60, 0x00, 0x00, 0x1F, 0x00, 
  };
